<mxfile host="app.diagrams.net" modified="2021-09-26T03:09:23.540Z" agent="5.0 (Windows NT 10.0; Win64; x64) AppleWebKit/537.36 (KHTML, like Gecko) Chrome/93.0.4577.82 Safari/537.36" etag="Aemytp5Bi2LkHDCDpZ26" version="15.3.2" type="github">
  <diagram id="C5RBs43oDa-KdzZeNtuy" name="Page-1">
    <mxGraphModel dx="1879" dy="1674" grid="1" gridSize="10" guides="1" tooltips="1" connect="1" arrows="1" fold="1" page="1" pageScale="1" pageWidth="827" pageHeight="1169" math="0" shadow="0">
      <root>
        <mxCell id="WIyWlLk6GJQsqaUBKTNV-0" />
        <mxCell id="WIyWlLk6GJQsqaUBKTNV-1" parent="WIyWlLk6GJQsqaUBKTNV-0" />
        <mxCell id="WIyWlLk6GJQsqaUBKTNV-2" value="" style="rounded=0;html=1;jettySize=auto;orthogonalLoop=1;fontSize=11;endArrow=block;endFill=0;endSize=8;strokeWidth=1;shadow=0;labelBackgroundColor=none;edgeStyle=orthogonalEdgeStyle;" parent="WIyWlLk6GJQsqaUBKTNV-1" source="WIyWlLk6GJQsqaUBKTNV-3" target="ObRIXg-D2kCXkb4xeqmy-2" edge="1">
          <mxGeometry relative="1" as="geometry">
            <mxPoint x="220" y="80" as="targetPoint" />
            <Array as="points">
              <mxPoint x="220" y="50" />
              <mxPoint x="220" y="50" />
            </Array>
          </mxGeometry>
        </mxCell>
        <mxCell id="WIyWlLk6GJQsqaUBKTNV-3" value="&lt;font style=&quot;font-size: 14px&quot;&gt;&lt;b&gt;Start&lt;/b&gt;&lt;/font&gt;" style="rounded=1;whiteSpace=wrap;html=1;fontSize=12;glass=0;strokeWidth=1;shadow=0;" parent="WIyWlLk6GJQsqaUBKTNV-1" vertex="1">
          <mxGeometry x="160" y="20" width="120" height="40" as="geometry" />
        </mxCell>
        <mxCell id="ObRIXg-D2kCXkb4xeqmy-4" value="" style="edgeStyle=orthogonalEdgeStyle;rounded=0;orthogonalLoop=1;jettySize=auto;html=1;" edge="1" parent="WIyWlLk6GJQsqaUBKTNV-1" source="ObRIXg-D2kCXkb4xeqmy-2" target="ObRIXg-D2kCXkb4xeqmy-5">
          <mxGeometry relative="1" as="geometry">
            <mxPoint x="210" y="190" as="targetPoint" />
          </mxGeometry>
        </mxCell>
        <mxCell id="ObRIXg-D2kCXkb4xeqmy-2" value="&lt;font size=&quot;1&quot;&gt;&lt;b style=&quot;font-size: 13px&quot;&gt;Input a number between1~92&lt;/b&gt;&lt;/font&gt;" style="shape=parallelogram;perimeter=parallelogramPerimeter;whiteSpace=wrap;html=1;fixedSize=1;fillColor=#dae8fc;strokeColor=#6c8ebf;" vertex="1" parent="WIyWlLk6GJQsqaUBKTNV-1">
          <mxGeometry x="160" y="100" width="120" height="60" as="geometry" />
        </mxCell>
        <mxCell id="ObRIXg-D2kCXkb4xeqmy-11" value="" style="edgeStyle=orthogonalEdgeStyle;rounded=0;orthogonalLoop=1;jettySize=auto;html=1;" edge="1" parent="WIyWlLk6GJQsqaUBKTNV-1" source="ObRIXg-D2kCXkb4xeqmy-5" target="ObRIXg-D2kCXkb4xeqmy-10">
          <mxGeometry relative="1" as="geometry" />
        </mxCell>
        <mxCell id="ObRIXg-D2kCXkb4xeqmy-5" value="&lt;span style=&quot;font-size: 14px&quot;&gt;&lt;b&gt;Number correct?&lt;/b&gt;&lt;/span&gt;" style="rhombus;whiteSpace=wrap;html=1;fillColor=#fff2cc;strokeColor=#d6b656;" vertex="1" parent="WIyWlLk6GJQsqaUBKTNV-1">
          <mxGeometry x="180" y="180" width="80" height="80" as="geometry" />
        </mxCell>
        <mxCell id="ObRIXg-D2kCXkb4xeqmy-6" value="" style="endArrow=classic;html=1;entryX=1;entryY=0.5;entryDx=0;entryDy=0;" edge="1" parent="WIyWlLk6GJQsqaUBKTNV-1" target="ObRIXg-D2kCXkb4xeqmy-2">
          <mxGeometry width="50" height="50" relative="1" as="geometry">
            <mxPoint x="330" y="130" as="sourcePoint" />
            <mxPoint x="140" y="190" as="targetPoint" />
          </mxGeometry>
        </mxCell>
        <mxCell id="ObRIXg-D2kCXkb4xeqmy-7" value="" style="endArrow=none;html=1;" edge="1" parent="WIyWlLk6GJQsqaUBKTNV-1">
          <mxGeometry width="50" height="50" relative="1" as="geometry">
            <mxPoint x="330" y="220" as="sourcePoint" />
            <mxPoint x="330" y="130" as="targetPoint" />
          </mxGeometry>
        </mxCell>
        <mxCell id="ObRIXg-D2kCXkb4xeqmy-8" value="" style="endArrow=none;html=1;exitX=1;exitY=0.5;exitDx=0;exitDy=0;" edge="1" parent="WIyWlLk6GJQsqaUBKTNV-1" source="ObRIXg-D2kCXkb4xeqmy-5">
          <mxGeometry width="50" height="50" relative="1" as="geometry">
            <mxPoint x="90" y="220" as="sourcePoint" />
            <mxPoint x="330" y="220" as="targetPoint" />
          </mxGeometry>
        </mxCell>
        <mxCell id="ObRIXg-D2kCXkb4xeqmy-9" value="N" style="text;html=1;strokeColor=none;fillColor=none;align=center;verticalAlign=middle;whiteSpace=wrap;rounded=0;" vertex="1" parent="WIyWlLk6GJQsqaUBKTNV-1">
          <mxGeometry x="260" y="200" width="40" height="20" as="geometry" />
        </mxCell>
        <mxCell id="ObRIXg-D2kCXkb4xeqmy-13" value="" style="edgeStyle=orthogonalEdgeStyle;rounded=0;orthogonalLoop=1;jettySize=auto;html=1;" edge="1" parent="WIyWlLk6GJQsqaUBKTNV-1" source="ObRIXg-D2kCXkb4xeqmy-10" target="ObRIXg-D2kCXkb4xeqmy-12">
          <mxGeometry relative="1" as="geometry" />
        </mxCell>
        <mxCell id="ObRIXg-D2kCXkb4xeqmy-10" value="&lt;font size=&quot;1&quot;&gt;&lt;b style=&quot;font-size: 13px&quot;&gt;透過動態規劃先將第1~92個費式數列建立好，以供後續使用&lt;/b&gt;&lt;/font&gt;" style="whiteSpace=wrap;html=1;" vertex="1" parent="WIyWlLk6GJQsqaUBKTNV-1">
          <mxGeometry x="160" y="280" width="120" height="60" as="geometry" />
        </mxCell>
        <mxCell id="ObRIXg-D2kCXkb4xeqmy-15" value="" style="edgeStyle=orthogonalEdgeStyle;rounded=0;orthogonalLoop=1;jettySize=auto;html=1;" edge="1" parent="WIyWlLk6GJQsqaUBKTNV-1" source="ObRIXg-D2kCXkb4xeqmy-12" target="ObRIXg-D2kCXkb4xeqmy-14">
          <mxGeometry relative="1" as="geometry" />
        </mxCell>
        <mxCell id="ObRIXg-D2kCXkb4xeqmy-12" value="&lt;b&gt;&lt;font style=&quot;font-size: 13px&quot;&gt;建議完成後，運用數學方法來找最小差值因數組合&lt;/font&gt;&lt;/b&gt;" style="whiteSpace=wrap;html=1;" vertex="1" parent="WIyWlLk6GJQsqaUBKTNV-1">
          <mxGeometry x="160" y="360" width="120" height="60" as="geometry" />
        </mxCell>
        <mxCell id="ObRIXg-D2kCXkb4xeqmy-17" value="" style="edgeStyle=orthogonalEdgeStyle;rounded=0;orthogonalLoop=1;jettySize=auto;html=1;" edge="1" parent="WIyWlLk6GJQsqaUBKTNV-1" source="ObRIXg-D2kCXkb4xeqmy-14" target="ObRIXg-D2kCXkb4xeqmy-18">
          <mxGeometry relative="1" as="geometry">
            <mxPoint x="220" y="545" as="targetPoint" />
          </mxGeometry>
        </mxCell>
        <mxCell id="ObRIXg-D2kCXkb4xeqmy-14" value="&lt;b style=&quot;font-size: 13px&quot;&gt;if 費式數列N為奇數 時&lt;br&gt;只須找奇數的因數&lt;br&gt;else N 為偶數 &amp;amp;&amp;amp; N &amp;gt;&amp;gt; 1 也為偶數&lt;br&gt;只須找偶數因數&lt;/b&gt;" style="whiteSpace=wrap;html=1;" vertex="1" parent="WIyWlLk6GJQsqaUBKTNV-1">
          <mxGeometry x="140" y="440" width="160" height="80" as="geometry" />
        </mxCell>
        <mxCell id="ObRIXg-D2kCXkb4xeqmy-18" value="&lt;b&gt;&lt;font style=&quot;font-size: 14px&quot;&gt;for i from 0 to input number&lt;/font&gt;&lt;/b&gt;" style="rounded=0;whiteSpace=wrap;html=1;" vertex="1" parent="WIyWlLk6GJQsqaUBKTNV-1">
          <mxGeometry x="160" y="550" width="120" height="60" as="geometry" />
        </mxCell>
        <mxCell id="ObRIXg-D2kCXkb4xeqmy-27" value="" style="edgeStyle=orthogonalEdgeStyle;rounded=0;orthogonalLoop=1;jettySize=auto;html=1;" edge="1" parent="WIyWlLk6GJQsqaUBKTNV-1" source="ObRIXg-D2kCXkb4xeqmy-19" target="ObRIXg-D2kCXkb4xeqmy-26">
          <mxGeometry relative="1" as="geometry" />
        </mxCell>
        <mxCell id="ObRIXg-D2kCXkb4xeqmy-35" value="" style="edgeStyle=orthogonalEdgeStyle;rounded=0;orthogonalLoop=1;jettySize=auto;html=1;" edge="1" parent="WIyWlLk6GJQsqaUBKTNV-1" source="ObRIXg-D2kCXkb4xeqmy-19" target="ObRIXg-D2kCXkb4xeqmy-34">
          <mxGeometry relative="1" as="geometry" />
        </mxCell>
        <mxCell id="ObRIXg-D2kCXkb4xeqmy-19" value="&lt;b&gt;&lt;font style=&quot;font-size: 14px&quot;&gt;fib[i] % 2 ?&lt;/font&gt;&lt;/b&gt;" style="rhombus;whiteSpace=wrap;html=1;rounded=0;fillColor=#fff2cc;strokeColor=#d6b656;" vertex="1" parent="WIyWlLk6GJQsqaUBKTNV-1">
          <mxGeometry x="180" y="720" width="80" height="80" as="geometry" />
        </mxCell>
        <mxCell id="ObRIXg-D2kCXkb4xeqmy-23" value="&lt;b&gt;&lt;font style=&quot;font-size: 14px&quot;&gt;先設定x1 = x2 = sqrt(fib[i])&lt;/font&gt;&lt;/b&gt;" style="rounded=0;whiteSpace=wrap;html=1;" vertex="1" parent="WIyWlLk6GJQsqaUBKTNV-1">
          <mxGeometry x="160" y="640" width="120" height="60" as="geometry" />
        </mxCell>
        <mxCell id="ObRIXg-D2kCXkb4xeqmy-24" value="" style="endArrow=classic;html=1;entryX=0.5;entryY=0;entryDx=0;entryDy=0;exitX=0.5;exitY=1;exitDx=0;exitDy=0;" edge="1" parent="WIyWlLk6GJQsqaUBKTNV-1" source="ObRIXg-D2kCXkb4xeqmy-18" target="ObRIXg-D2kCXkb4xeqmy-23">
          <mxGeometry width="50" height="50" relative="1" as="geometry">
            <mxPoint x="120" y="840" as="sourcePoint" />
            <mxPoint x="170" y="790" as="targetPoint" />
          </mxGeometry>
        </mxCell>
        <mxCell id="ObRIXg-D2kCXkb4xeqmy-25" value="" style="endArrow=classic;html=1;exitX=0.5;exitY=1;exitDx=0;exitDy=0;entryX=0.5;entryY=0;entryDx=0;entryDy=0;" edge="1" parent="WIyWlLk6GJQsqaUBKTNV-1" source="ObRIXg-D2kCXkb4xeqmy-23" target="ObRIXg-D2kCXkb4xeqmy-19">
          <mxGeometry width="50" height="50" relative="1" as="geometry">
            <mxPoint x="120" y="840" as="sourcePoint" />
            <mxPoint x="170" y="790" as="targetPoint" />
          </mxGeometry>
        </mxCell>
        <mxCell id="ObRIXg-D2kCXkb4xeqmy-26" value="&lt;b&gt;&lt;font style=&quot;font-size: 15px&quot;&gt;x1%2?&lt;/font&gt;&lt;/b&gt;" style="rhombus;whiteSpace=wrap;html=1;rounded=0;fillColor=#fff2cc;strokeColor=#d6b656;" vertex="1" parent="WIyWlLk6GJQsqaUBKTNV-1">
          <mxGeometry x="180" y="840" width="80" height="80" as="geometry" />
        </mxCell>
        <mxCell id="ObRIXg-D2kCXkb4xeqmy-28" value="1" style="text;html=1;align=center;verticalAlign=middle;resizable=0;points=[];autosize=1;strokeColor=none;fillColor=none;" vertex="1" parent="WIyWlLk6GJQsqaUBKTNV-1">
          <mxGeometry x="190" y="810" width="20" height="20" as="geometry" />
        </mxCell>
        <mxCell id="ObRIXg-D2kCXkb4xeqmy-29" value="" style="endArrow=classic;html=1;exitX=0.5;exitY=1;exitDx=0;exitDy=0;" edge="1" parent="WIyWlLk6GJQsqaUBKTNV-1" source="ObRIXg-D2kCXkb4xeqmy-26" target="ObRIXg-D2kCXkb4xeqmy-37">
          <mxGeometry width="50" height="50" relative="1" as="geometry">
            <mxPoint x="210" y="1000" as="sourcePoint" />
            <mxPoint x="220" y="970" as="targetPoint" />
          </mxGeometry>
        </mxCell>
        <mxCell id="ObRIXg-D2kCXkb4xeqmy-30" value="" style="endArrow=classic;html=1;exitX=1;exitY=0.5;exitDx=0;exitDy=0;" edge="1" parent="WIyWlLk6GJQsqaUBKTNV-1" source="ObRIXg-D2kCXkb4xeqmy-26" target="ObRIXg-D2kCXkb4xeqmy-31">
          <mxGeometry width="50" height="50" relative="1" as="geometry">
            <mxPoint x="290" y="910" as="sourcePoint" />
            <mxPoint x="310" y="880" as="targetPoint" />
          </mxGeometry>
        </mxCell>
        <mxCell id="ObRIXg-D2kCXkb4xeqmy-31" value="&lt;b&gt;&lt;font style=&quot;font-size: 19px&quot;&gt;x1--&lt;/font&gt;&lt;/b&gt;" style="rounded=0;whiteSpace=wrap;html=1;" vertex="1" parent="WIyWlLk6GJQsqaUBKTNV-1">
          <mxGeometry x="300" y="860" width="80" height="40" as="geometry" />
        </mxCell>
        <mxCell id="ObRIXg-D2kCXkb4xeqmy-32" value="0" style="text;html=1;align=center;verticalAlign=middle;resizable=0;points=[];autosize=1;strokeColor=none;fillColor=none;" vertex="1" parent="WIyWlLk6GJQsqaUBKTNV-1">
          <mxGeometry x="270" y="860" width="20" height="20" as="geometry" />
        </mxCell>
        <mxCell id="ObRIXg-D2kCXkb4xeqmy-33" value="1" style="text;html=1;align=center;verticalAlign=middle;resizable=0;points=[];autosize=1;strokeColor=none;fillColor=none;" vertex="1" parent="WIyWlLk6GJQsqaUBKTNV-1">
          <mxGeometry x="200" y="930" width="20" height="20" as="geometry" />
        </mxCell>
        <mxCell id="ObRIXg-D2kCXkb4xeqmy-42" value="" style="edgeStyle=orthogonalEdgeStyle;rounded=0;orthogonalLoop=1;jettySize=auto;html=1;" edge="1" parent="WIyWlLk6GJQsqaUBKTNV-1" source="ObRIXg-D2kCXkb4xeqmy-34" target="ObRIXg-D2kCXkb4xeqmy-41">
          <mxGeometry relative="1" as="geometry" />
        </mxCell>
        <mxCell id="ObRIXg-D2kCXkb4xeqmy-34" value="&lt;b&gt;&lt;font style=&quot;font-size: 13px&quot;&gt;(fib[i]&amp;gt;&amp;gt;1)%2?&lt;/font&gt;&lt;/b&gt;" style="rhombus;whiteSpace=wrap;html=1;rounded=0;fillColor=#fff2cc;strokeColor=#d6b656;" vertex="1" parent="WIyWlLk6GJQsqaUBKTNV-1">
          <mxGeometry x="300" y="710" width="100" height="100" as="geometry" />
        </mxCell>
        <mxCell id="ObRIXg-D2kCXkb4xeqmy-36" value="0" style="text;html=1;align=center;verticalAlign=middle;resizable=0;points=[];autosize=1;strokeColor=none;fillColor=none;" vertex="1" parent="WIyWlLk6GJQsqaUBKTNV-1">
          <mxGeometry x="270" y="740" width="20" height="20" as="geometry" />
        </mxCell>
        <mxCell id="ObRIXg-D2kCXkb4xeqmy-58" value="" style="edgeStyle=orthogonalEdgeStyle;rounded=0;orthogonalLoop=1;jettySize=auto;html=1;" edge="1" parent="WIyWlLk6GJQsqaUBKTNV-1" source="ObRIXg-D2kCXkb4xeqmy-37" target="ObRIXg-D2kCXkb4xeqmy-57">
          <mxGeometry relative="1" as="geometry" />
        </mxCell>
        <mxCell id="ObRIXg-D2kCXkb4xeqmy-37" value="&lt;b&gt;&lt;font style=&quot;font-size: 13px&quot;&gt;while ( ! ( x1*x2 == fib[i] &lt;br&gt;&amp;amp;&amp;amp; fib[i] % x1 == 0 &lt;br&gt;&amp;amp;&amp;amp; fib[i] % x2 == 0 ) )&lt;/font&gt;&lt;/b&gt;" style="rounded=0;whiteSpace=wrap;html=1;" vertex="1" parent="WIyWlLk6GJQsqaUBKTNV-1">
          <mxGeometry x="120" y="960" width="200" height="80" as="geometry" />
        </mxCell>
        <mxCell id="ObRIXg-D2kCXkb4xeqmy-38" value="" style="endArrow=classic;html=1;entryX=1;entryY=0.5;entryDx=0;entryDy=0;" edge="1" parent="WIyWlLk6GJQsqaUBKTNV-1" target="ObRIXg-D2kCXkb4xeqmy-37">
          <mxGeometry width="50" height="50" relative="1" as="geometry">
            <mxPoint x="340" y="1000" as="sourcePoint" />
            <mxPoint x="300" y="1000" as="targetPoint" />
          </mxGeometry>
        </mxCell>
        <mxCell id="ObRIXg-D2kCXkb4xeqmy-39" value="" style="endArrow=none;html=1;entryX=0.5;entryY=1;entryDx=0;entryDy=0;" edge="1" parent="WIyWlLk6GJQsqaUBKTNV-1" target="ObRIXg-D2kCXkb4xeqmy-31">
          <mxGeometry width="50" height="50" relative="1" as="geometry">
            <mxPoint x="340" y="1000" as="sourcePoint" />
            <mxPoint x="400" y="920" as="targetPoint" />
          </mxGeometry>
        </mxCell>
        <mxCell id="ObRIXg-D2kCXkb4xeqmy-41" value="&lt;b&gt;&lt;font style=&quot;font-size: 13px&quot;&gt;x1%2?&lt;/font&gt;&lt;/b&gt;" style="rhombus;whiteSpace=wrap;html=1;rounded=0;fillColor=#fff2cc;strokeColor=#d6b656;" vertex="1" parent="WIyWlLk6GJQsqaUBKTNV-1">
          <mxGeometry x="430" y="710" width="100" height="100" as="geometry" />
        </mxCell>
        <mxCell id="ObRIXg-D2kCXkb4xeqmy-43" value="0" style="text;html=1;align=center;verticalAlign=middle;resizable=0;points=[];autosize=1;strokeColor=none;fillColor=none;" vertex="1" parent="WIyWlLk6GJQsqaUBKTNV-1">
          <mxGeometry x="404" y="740" width="20" height="20" as="geometry" />
        </mxCell>
        <mxCell id="ObRIXg-D2kCXkb4xeqmy-45" value="&lt;b style=&quot;font-size: 13px&quot;&gt;任意整數 % 2 == 0&amp;nbsp; 偶數&lt;br&gt;% 2 == 1 奇數&lt;/b&gt;" style="shape=callout;whiteSpace=wrap;html=1;perimeter=calloutPerimeter;position2=0.58;" vertex="1" parent="WIyWlLk6GJQsqaUBKTNV-1">
          <mxGeometry x="360" y="630" width="120" height="80" as="geometry" />
        </mxCell>
        <mxCell id="ObRIXg-D2kCXkb4xeqmy-49" value="" style="endArrow=classic;html=1;entryX=1;entryY=0.5;entryDx=0;entryDy=0;" edge="1" parent="WIyWlLk6GJQsqaUBKTNV-1" target="ObRIXg-D2kCXkb4xeqmy-31">
          <mxGeometry width="50" height="50" relative="1" as="geometry">
            <mxPoint x="480" y="880" as="sourcePoint" />
            <mxPoint x="505" y="845" as="targetPoint" />
          </mxGeometry>
        </mxCell>
        <mxCell id="ObRIXg-D2kCXkb4xeqmy-50" value="" style="endArrow=none;html=1;entryX=0.5;entryY=1;entryDx=0;entryDy=0;" edge="1" parent="WIyWlLk6GJQsqaUBKTNV-1" target="ObRIXg-D2kCXkb4xeqmy-41">
          <mxGeometry width="50" height="50" relative="1" as="geometry">
            <mxPoint x="480" y="880" as="sourcePoint" />
            <mxPoint x="530" y="810" as="targetPoint" />
          </mxGeometry>
        </mxCell>
        <mxCell id="ObRIXg-D2kCXkb4xeqmy-51" value="0" style="text;html=1;align=center;verticalAlign=middle;resizable=0;points=[];autosize=1;strokeColor=none;fillColor=none;" vertex="1" parent="WIyWlLk6GJQsqaUBKTNV-1">
          <mxGeometry x="460" y="830" width="20" height="20" as="geometry" />
        </mxCell>
        <mxCell id="ObRIXg-D2kCXkb4xeqmy-53" value="" style="endArrow=none;html=1;exitX=1;exitY=0.5;exitDx=0;exitDy=0;" edge="1" parent="WIyWlLk6GJQsqaUBKTNV-1" source="ObRIXg-D2kCXkb4xeqmy-41">
          <mxGeometry width="50" height="50" relative="1" as="geometry">
            <mxPoint x="540" y="865" as="sourcePoint" />
            <mxPoint x="570" y="760" as="targetPoint" />
          </mxGeometry>
        </mxCell>
        <mxCell id="ObRIXg-D2kCXkb4xeqmy-55" value="" style="endArrow=none;html=1;entryX=0.5;entryY=1;entryDx=0;entryDy=0;" edge="1" parent="WIyWlLk6GJQsqaUBKTNV-1" target="ObRIXg-D2kCXkb4xeqmy-62">
          <mxGeometry width="50" height="50" relative="1" as="geometry">
            <mxPoint x="570" y="1000" as="sourcePoint" />
            <mxPoint x="570" y="880" as="targetPoint" />
          </mxGeometry>
        </mxCell>
        <mxCell id="ObRIXg-D2kCXkb4xeqmy-56" value="" style="endArrow=classic;html=1;" edge="1" parent="WIyWlLk6GJQsqaUBKTNV-1">
          <mxGeometry width="50" height="50" relative="1" as="geometry">
            <mxPoint x="570" y="1000" as="sourcePoint" />
            <mxPoint x="340" y="1000" as="targetPoint" />
          </mxGeometry>
        </mxCell>
        <mxCell id="ObRIXg-D2kCXkb4xeqmy-60" value="" style="edgeStyle=orthogonalEdgeStyle;rounded=0;orthogonalLoop=1;jettySize=auto;html=1;entryX=0.5;entryY=0;entryDx=0;entryDy=0;" edge="1" parent="WIyWlLk6GJQsqaUBKTNV-1" source="ObRIXg-D2kCXkb4xeqmy-57" target="ObRIXg-D2kCXkb4xeqmy-61">
          <mxGeometry relative="1" as="geometry">
            <mxPoint x="220" y="1190" as="targetPoint" />
          </mxGeometry>
        </mxCell>
        <mxCell id="ObRIXg-D2kCXkb4xeqmy-65" value="" style="edgeStyle=orthogonalEdgeStyle;rounded=0;orthogonalLoop=1;jettySize=auto;html=1;" edge="1" parent="WIyWlLk6GJQsqaUBKTNV-1" source="ObRIXg-D2kCXkb4xeqmy-57" target="ObRIXg-D2kCXkb4xeqmy-64">
          <mxGeometry relative="1" as="geometry" />
        </mxCell>
        <mxCell id="ObRIXg-D2kCXkb4xeqmy-57" value="&lt;b style=&quot;font-size: 13px&quot;&gt;fib[i]%x1 &lt;br&gt;== 0 ?&lt;/b&gt;" style="rhombus;whiteSpace=wrap;html=1;rounded=0;fillColor=#fff2cc;strokeColor=#d6b656;" vertex="1" parent="WIyWlLk6GJQsqaUBKTNV-1">
          <mxGeometry x="180" y="1080" width="80" height="80" as="geometry" />
        </mxCell>
        <mxCell id="ObRIXg-D2kCXkb4xeqmy-61" value="&lt;b&gt;&lt;font style=&quot;font-size: 16px&quot;&gt;x2 = fib[i]/x1&lt;/font&gt;&lt;/b&gt;" style="rounded=0;whiteSpace=wrap;html=1;" vertex="1" parent="WIyWlLk6GJQsqaUBKTNV-1">
          <mxGeometry x="180" y="1190" width="80" height="40" as="geometry" />
        </mxCell>
        <mxCell id="ObRIXg-D2kCXkb4xeqmy-62" value="&lt;b style=&quot;font-size: 14px&quot;&gt;表示x1已經是偶數&lt;br&gt;不需做任何動作&lt;/b&gt;" style="rounded=0;whiteSpace=wrap;html=1;" vertex="1" parent="WIyWlLk6GJQsqaUBKTNV-1">
          <mxGeometry x="510" y="800" width="120" height="60" as="geometry" />
        </mxCell>
        <mxCell id="ObRIXg-D2kCXkb4xeqmy-63" value="" style="endArrow=classic;html=1;entryX=0.5;entryY=0;entryDx=0;entryDy=0;" edge="1" parent="WIyWlLk6GJQsqaUBKTNV-1" target="ObRIXg-D2kCXkb4xeqmy-62">
          <mxGeometry width="50" height="50" relative="1" as="geometry">
            <mxPoint x="570" y="760" as="sourcePoint" />
            <mxPoint x="640" y="735" as="targetPoint" />
          </mxGeometry>
        </mxCell>
        <mxCell id="ObRIXg-D2kCXkb4xeqmy-64" value="&lt;b&gt;&lt;font style=&quot;font-size: 13px&quot;&gt;我的程式有紀錄上面判斷奇偶的結果，&lt;br&gt;根據結果處裡&lt;br&gt;x1要-1或-2&lt;/font&gt;&lt;br&gt;&lt;/b&gt;" style="whiteSpace=wrap;html=1;rounded=0;" vertex="1" parent="WIyWlLk6GJQsqaUBKTNV-1">
          <mxGeometry y="1090" width="120" height="60" as="geometry" />
        </mxCell>
        <mxCell id="ObRIXg-D2kCXkb4xeqmy-66" value="Y" style="text;html=1;align=center;verticalAlign=middle;resizable=0;points=[];autosize=1;strokeColor=none;fillColor=none;" vertex="1" parent="WIyWlLk6GJQsqaUBKTNV-1">
          <mxGeometry x="200" y="1169" width="20" height="20" as="geometry" />
        </mxCell>
        <mxCell id="ObRIXg-D2kCXkb4xeqmy-67" value="N" style="text;html=1;align=center;verticalAlign=middle;resizable=0;points=[];autosize=1;strokeColor=none;fillColor=none;" vertex="1" parent="WIyWlLk6GJQsqaUBKTNV-1">
          <mxGeometry x="150" y="1100" width="20" height="20" as="geometry" />
        </mxCell>
        <mxCell id="ObRIXg-D2kCXkb4xeqmy-68" value="" style="endArrow=classic;html=1;entryX=0;entryY=0.5;entryDx=0;entryDy=0;" edge="1" parent="WIyWlLk6GJQsqaUBKTNV-1" target="ObRIXg-D2kCXkb4xeqmy-37">
          <mxGeometry width="50" height="50" relative="1" as="geometry">
            <mxPoint x="60" y="1000" as="sourcePoint" />
            <mxPoint x="80" y="990" as="targetPoint" />
          </mxGeometry>
        </mxCell>
        <mxCell id="ObRIXg-D2kCXkb4xeqmy-69" value="" style="endArrow=none;html=1;exitX=0.5;exitY=0;exitDx=0;exitDy=0;" edge="1" parent="WIyWlLk6GJQsqaUBKTNV-1" source="ObRIXg-D2kCXkb4xeqmy-64">
          <mxGeometry width="50" height="50" relative="1" as="geometry">
            <mxPoint x="20" y="1240" as="sourcePoint" />
            <mxPoint x="60" y="1000" as="targetPoint" />
          </mxGeometry>
        </mxCell>
        <mxCell id="ObRIXg-D2kCXkb4xeqmy-72" value="" style="edgeStyle=orthogonalEdgeStyle;rounded=0;orthogonalLoop=1;jettySize=auto;html=1;" edge="1" parent="WIyWlLk6GJQsqaUBKTNV-1" source="ObRIXg-D2kCXkb4xeqmy-70" target="ObRIXg-D2kCXkb4xeqmy-71">
          <mxGeometry relative="1" as="geometry" />
        </mxCell>
        <mxCell id="ObRIXg-D2kCXkb4xeqmy-70" value="&lt;b&gt;&lt;font style=&quot;font-size: 14px&quot;&gt;Output&lt;/font&gt;&lt;/b&gt;" style="shape=parallelogram;perimeter=parallelogramPerimeter;whiteSpace=wrap;html=1;fixedSize=1;fillColor=#dae8fc;strokeColor=#6c8ebf;" vertex="1" parent="WIyWlLk6GJQsqaUBKTNV-1">
          <mxGeometry x="160" y="1280" width="120" height="60" as="geometry" />
        </mxCell>
        <mxCell id="ObRIXg-D2kCXkb4xeqmy-71" value="&lt;b&gt;&lt;font style=&quot;font-size: 13px&quot;&gt;輸出後處理將內迴圈數和外迴圈數歸0&lt;/font&gt;&lt;/b&gt;" style="whiteSpace=wrap;html=1;" vertex="1" parent="WIyWlLk6GJQsqaUBKTNV-1">
          <mxGeometry x="160" y="1380" width="120" height="60" as="geometry" />
        </mxCell>
        <mxCell id="ObRIXg-D2kCXkb4xeqmy-73" value="" style="endArrow=classic;html=1;entryX=0.5;entryY=0;entryDx=0;entryDy=0;exitX=0.5;exitY=1;exitDx=0;exitDy=0;" edge="1" parent="WIyWlLk6GJQsqaUBKTNV-1" source="ObRIXg-D2kCXkb4xeqmy-61" target="ObRIXg-D2kCXkb4xeqmy-70">
          <mxGeometry width="50" height="50" relative="1" as="geometry">
            <mxPoint x="190" y="1340" as="sourcePoint" />
            <mxPoint x="240" y="1290" as="targetPoint" />
          </mxGeometry>
        </mxCell>
        <mxCell id="ObRIXg-D2kCXkb4xeqmy-74" value="" style="endArrow=none;html=1;entryX=0;entryY=0.5;entryDx=0;entryDy=0;" edge="1" parent="WIyWlLk6GJQsqaUBKTNV-1" target="ObRIXg-D2kCXkb4xeqmy-71">
          <mxGeometry width="50" height="50" relative="1" as="geometry">
            <mxPoint x="-100" y="1410" as="sourcePoint" />
            <mxPoint x="110" y="1410" as="targetPoint" />
          </mxGeometry>
        </mxCell>
        <mxCell id="ObRIXg-D2kCXkb4xeqmy-75" value="" style="endArrow=none;html=1;" edge="1" parent="WIyWlLk6GJQsqaUBKTNV-1">
          <mxGeometry width="50" height="50" relative="1" as="geometry">
            <mxPoint x="-100" y="1410" as="sourcePoint" />
            <mxPoint x="-90" y="130" as="targetPoint" />
          </mxGeometry>
        </mxCell>
        <mxCell id="ObRIXg-D2kCXkb4xeqmy-76" value="" style="endArrow=classic;html=1;entryX=0;entryY=0.5;entryDx=0;entryDy=0;" edge="1" parent="WIyWlLk6GJQsqaUBKTNV-1" target="ObRIXg-D2kCXkb4xeqmy-2">
          <mxGeometry width="50" height="50" relative="1" as="geometry">
            <mxPoint x="-90" y="130" as="sourcePoint" />
            <mxPoint x="90" y="130" as="targetPoint" />
          </mxGeometry>
        </mxCell>
        <mxCell id="ObRIXg-D2kCXkb4xeqmy-77" value="Y" style="text;html=1;align=center;verticalAlign=middle;resizable=0;points=[];autosize=1;strokeColor=none;fillColor=none;" vertex="1" parent="WIyWlLk6GJQsqaUBKTNV-1">
          <mxGeometry x="220" y="260" width="20" height="20" as="geometry" />
        </mxCell>
      </root>
    </mxGraphModel>
  </diagram>
</mxfile>
